<svg xmlns="http://www.w3.org/2000/svg" xmlns:xlink="http://www.w3.org/1999/xlink" viewBox="0,0,256,256" width="48px" height="48px" fill-rule="nonzero"><g fill-opacity="0" fill="#dddddd" fill-rule="nonzero" stroke="none" stroke-width="1" stroke-linecap="butt" stroke-linejoin="miter" stroke-miterlimit="10" stroke-dasharray="" stroke-dashoffset="0" font-family="none" font-weight="none" font-size="none" text-anchor="none" style="mix-blend-mode: normal"><path d="M0,256v-256h256v256z" id="bgRectangle"></path></g><g fill="#ffffff" fill-rule="nonzero" stroke="none" stroke-width="1" stroke-linecap="butt" stroke-linejoin="miter" stroke-miterlimit="10" stroke-dasharray="" stroke-dashoffset="0" font-family="none" font-weight="none" font-size="none" text-anchor="none" style="mix-blend-mode: normal"><g transform="scale(5.33333,5.33333)"><path d="M8,24c0,-8.8 7.2,-16 16,-16c1,0 2,0.1 3,0.3l0.7,-3.9c-1.2,-0.3 -2.4,-0.4 -3.7,-0.4c-11.1,0 -20,9 -20,20c0,4.8 1.7,9.5 4.8,13.1l3,-2.6c-2.3,-2.9 -3.8,-6.5 -3.8,-10.5z"></path><path d="M39.5,11.3l-3.1,2.5c2.2,2.8 3.6,6.3 3.6,10.2c0,8.8 -7.2,16 -16,16c-1,0 -2,-0.1 -3,-0.3l-0.7,3.8c1.3,0.2 2.5,0.3 3.7,0.3c11.1,0 20,-8.9 20,-20c0,-4.4 -1.6,-9 -4.5,-12.5z"></path><path d="M31,7l13,1.7l-10.7,10.3z"></path><path d="M17,41l-13,-1.7l10.7,-10.3z"></path></g></g></svg>